<svg width="155" height="60" viewBox="0 0 155 60" fill="none" xmlns="http://www.w3.org/2000/svg">
<g clip-path="url(#clip0_298_799)">
<path fill-rule="evenodd" clip-rule="evenodd" d="M33.4718 11.7373C35.3891 12.478 37.112 13.6497 38.5085 15.1627C37.6808 11.5733 35.8618 8.2911 33.2605 5.69304C30.6591 3.09499 27.3809 1.28641 23.8022 0.474999C20.2236 -0.33641 16.4896 -0.117746 13.0291 1.10588C9.5686 2.3295 6.5219 4.50847 4.23887 7.39256C1.95585 10.2766 0.529069 13.7489 0.122385 17.4106C-0.2843 21.0723 0.345601 24.7749 1.93975 28.0933C3.5339 31.4117 6.02766 34.2113 9.13465 36.1706C12.2416 38.1299 15.8359 39.1694 19.5046 39.1698C20.2327 39.1694 20.9603 39.1299 21.6842 39.0515L33.731 60L35.5513 55.7641L25.472 38.2351L23.6753 35.1055C22.3894 35.4518 21.0656 35.6366 19.7344 35.6557H19.5046C18.5428 35.6556 17.5828 35.5705 16.6358 35.4013C12.9481 34.7289 9.61276 32.7773 7.21182 29.8871C4.81088 26.9969 3.49688 23.3518 3.49918 19.5879C3.49895 16.0309 4.67352 12.5744 6.83891 9.75963C9.0043 6.94489 12.0382 4.93097 15.4654 4.03331C18.8925 3.13566 22.5194 3.40498 25.7778 4.79909C29.0363 6.19321 31.7422 8.63336 33.4718 11.7373Z" fill="#FCBA04"/>
<path fill-rule="evenodd" clip-rule="evenodd" d="M16.6358 29.58V20.5285L24.3881 33.3603L24.4706 33.5023L33.5425 48.5111L35.6985 52.0607C37.2204 51.152 38.5111 49.9003 39.4687 48.4046C40.5897 46.5638 41.1621 44.4389 41.1181 42.2816C41.1407 40.8101 40.8549 39.3503 40.2795 37.9969C39.7041 36.6434 38.8519 35.4265 37.778 34.4252C36.8175 33.4948 35.7084 32.7329 34.4968 32.1712C37.5895 30.7691 39.1035 27.0242 39.1035 23.7941C39.1035 17.4463 33.949 13.3938 27.9108 13.3938H18.2616L20.7063 17.4344H27.8519C31.8106 17.4344 34.756 19.6174 34.756 23.7941C34.756 27.7401 32.3997 30.1301 28.5235 30.3609L31.0094 34.5021C32.3621 34.8447 33.5887 35.5694 34.5439 36.5904C35.653 37.7779 36.3927 39.2648 36.6721 40.8685C36.9515 42.4723 36.7585 44.1231 36.1168 45.6182L19.0805 17.4344L16.6358 13.3938H12.9599V32.5912L13.549 32.887C15.4198 33.7239 17.4447 34.1572 19.4928 34.1589H19.699C20.8035 34.1352 21.902 33.9884 22.9743 33.7212L20.9479 30.3609L16.6358 29.58Z" fill="#31447C"/>
<path fill-rule="evenodd" clip-rule="evenodd" d="M16.6358 40.4713C15.3865 40.2896 14.1561 39.9946 12.9599 39.5898V52.9955L16.6475 51.5342L16.6358 40.4713Z" fill="#31447C"/>
<path d="M50.2195 43.7251H47.7159L47.1739 44.9083H46.6791L48.7409 40.3885H49.2063L51.2504 44.9615H50.7438L50.2195 43.7251ZM50.0428 43.3346L48.9647 40.9091L47.8867 43.3346H50.0428ZM55.4329 44.9615C55.0211 44.9627 54.6157 44.8589 54.2547 44.6598C53.9037 44.4691 53.6122 44.1844 53.4123 43.8375C53.2095 43.4764 53.1029 43.0689 53.1029 42.6543C53.1029 42.2397 53.2095 41.8322 53.4123 41.4711C53.6088 41.1216 53.9012 40.8362 54.2547 40.6488C54.6267 40.4453 55.0446 40.3414 55.4682 40.3471C55.7845 40.3452 56.0983 40.4034 56.3931 40.5186C56.6672 40.6244 56.9131 40.7925 57.1118 41.0097L56.8113 41.3114C56.6375 41.1359 56.4296 40.9982 56.2006 40.9066C55.9716 40.815 55.7264 40.7716 55.48 40.7789C55.1404 40.7729 54.8053 40.8565 54.508 41.0215C54.2248 41.1789 53.9888 41.4098 53.8247 41.69C53.6579 41.9813 53.5725 42.3124 53.5773 42.6484C53.5715 42.9787 53.6551 43.3044 53.8189 43.5909C53.9828 43.8774 54.221 44.1139 54.508 44.2753C54.8045 44.4428 55.1398 44.5286 55.48 44.5238C55.7275 44.5318 55.9739 44.4875 56.2033 44.3937C56.4326 44.2999 56.6398 44.1588 56.8113 43.9795L57.1118 44.2812C56.9118 44.5009 56.6638 44.6711 56.3872 44.7781C56.084 44.9011 55.7598 44.9634 55.4329 44.9615ZM61.4946 44.9615C61.0827 44.9627 60.6774 44.8589 60.3164 44.6598C59.9654 44.4691 59.6738 44.1844 59.474 43.8375C59.2711 43.4764 59.1646 43.0689 59.1646 42.6543C59.1646 42.2397 59.2711 41.8322 59.474 41.4711C59.6713 41.1201 59.9661 40.8344 60.3223 40.6488C60.692 40.4448 61.1081 40.3408 61.5299 40.3471C61.8462 40.3452 62.16 40.4034 62.4548 40.5186C62.7288 40.6244 62.9748 40.7925 63.1735 41.0097L62.873 41.3114C62.6991 41.1359 62.4913 40.9982 62.2623 40.9066C62.0333 40.815 61.7881 40.7716 61.5417 40.7789C61.2021 40.7729 60.8669 40.8565 60.5697 41.0215C60.2864 41.1789 60.0505 41.4098 59.8864 41.69C59.7196 41.9813 59.6342 42.3124 59.6389 42.6484C59.6332 42.9787 59.7167 43.3044 59.8806 43.5909C60.0445 43.8774 60.2826 44.1139 60.5697 44.2753C60.8662 44.4428 61.2015 44.5286 61.5417 44.5238C61.7892 44.5318 62.0356 44.4875 62.2649 44.3937C62.4943 44.2999 62.7015 44.1588 62.873 43.9795L63.1735 44.2812C62.9735 44.5009 62.7255 44.6711 62.4489 44.7781C62.1541 44.8934 61.8403 44.9516 61.524 44.9497L61.4946 44.9615ZM67.568 44.9615C67.1444 44.9677 66.7263 44.8638 66.3545 44.6598C66.0031 44.4675 65.7101 44.1834 65.5062 43.8375C65.2984 43.4786 65.1924 43.0694 65.1999 42.6543C65.1906 42.239 65.2967 41.8293 65.5062 41.4711C65.7083 41.1223 66.0017 40.8359 66.3545 40.6429C66.7278 40.4434 67.1452 40.3417 67.568 40.3471C67.9795 40.343 68.3851 40.4449 68.7462 40.6429C69.0988 40.8335 69.3923 41.118 69.5945 41.4652C69.7973 41.8263 69.9039 42.2338 69.9039 42.6484C69.9039 43.063 69.7973 43.4705 69.5945 43.8316C69.3924 44.1804 69.099 44.4668 68.7462 44.6598C68.3841 44.8554 67.9792 44.9571 67.568 44.9556V44.9615ZM67.568 44.5356C67.9036 44.5396 68.2345 44.456 68.5282 44.293C68.8113 44.1348 69.0457 43.9015 69.2057 43.6186C69.364 43.3242 69.4468 42.9948 69.4468 42.6602C69.4468 42.3256 69.364 41.9963 69.2057 41.7018C69.044 41.4202 68.8101 41.1873 68.5282 41.0274C68.234 40.8662 67.9031 40.7847 67.568 40.7908C67.2311 40.7847 66.8983 40.8662 66.6019 41.0274C66.3167 41.1847 66.0802 41.4181 65.9186 41.7018C65.7561 41.9949 65.6708 42.3248 65.6708 42.6602C65.6708 42.9957 65.7561 43.3255 65.9186 43.6186C66.0802 43.9023 66.3167 44.1357 66.6019 44.293C66.8967 44.4601 67.2295 44.5478 67.568 44.5474V44.5356ZM74.3425 44.9615C74.0921 44.9755 73.8416 44.9375 73.6064 44.85C73.3713 44.7625 73.1566 44.6273 72.9758 44.4528C72.8027 44.2534 72.6703 44.0218 72.5864 43.771C72.5025 43.5203 72.4687 43.2554 72.4869 42.9915V40.4121H72.964V42.9856C72.9292 43.4106 73.0554 43.8332 73.3175 44.1688C73.6 44.4208 73.9647 44.56 74.3425 44.56C74.7203 44.56 75.085 44.4208 75.3675 44.1688C75.6296 43.8332 75.7558 43.4106 75.721 42.9856V40.4121H76.1863V43.0033C76.2221 43.5352 76.0486 44.0598 75.7033 44.4646C75.523 44.6374 75.309 44.7708 75.0748 44.8563C74.8405 44.9418 74.5912 44.9777 74.3425 44.9615ZM82.9137 40.4003V44.9615H82.5249L79.6325 41.2936V44.9615H79.1553V40.4121H79.5265L82.4247 44.0801V40.4121L82.9137 40.4003ZM86.7899 40.8144H85.2111V40.4003H88.8517V40.8203H87.267V44.9615H86.7899V40.8203V40.8144ZM91.1432 40.4003H91.6204V44.9615H91.1432V40.4003ZM98.3831 40.4003V44.9615H97.9884L95.096 41.2936V44.9615H94.6188V40.4121H95.0135L97.9118 44.0801V40.4121L98.3831 40.4003ZM104.551 42.6602H105.01V44.3699C104.793 44.5627 104.538 44.7078 104.262 44.7959C103.971 44.8982 103.664 44.9502 103.355 44.9497C102.931 44.9559 102.513 44.852 102.141 44.648C101.803 44.4595 101.52 44.1839 101.323 43.8493C101.116 43.4896 101.007 43.0815 101.007 42.6661C101.007 42.2507 101.116 41.8427 101.323 41.4829C101.523 41.1344 101.817 40.8495 102.171 40.6606C102.545 40.4559 102.965 40.3519 103.39 40.3589C103.714 40.3575 104.035 40.4135 104.339 40.5245C104.615 40.6287 104.864 40.797 105.063 41.0156L104.769 41.3173C104.59 41.1404 104.377 41.002 104.143 40.9105C103.909 40.819 103.659 40.7762 103.408 40.7848C103.065 40.7815 102.727 40.8649 102.424 41.0274C102.137 41.1839 101.898 41.4173 101.735 41.7018C101.609 41.9161 101.526 42.1534 101.492 42.4001C101.458 42.6467 101.473 42.8977 101.537 43.1383C101.601 43.379 101.711 43.6045 101.863 43.8017C102.014 43.999 102.203 44.164 102.418 44.2871C102.72 44.4523 103.059 44.5359 103.402 44.5297C103.822 44.5456 104.236 44.423 104.58 44.1806V42.672L104.551 42.6602ZM111.526 44.9615C111.114 44.9627 110.708 44.8589 110.347 44.6598C109.998 44.4673 109.706 44.1831 109.505 43.8375C109.306 43.4752 109.202 43.0681 109.202 42.6543C109.202 42.2405 109.306 41.8334 109.505 41.4711C109.705 41.1226 109.999 40.8376 110.353 40.6488C110.723 40.4448 111.139 40.3408 111.561 40.3471C111.877 40.3446 112.191 40.4029 112.486 40.5186C112.762 40.6244 113.009 40.7924 113.21 41.0097L112.904 41.3114C112.731 41.1342 112.524 40.9953 112.294 40.9036C112.065 40.8119 111.819 40.7694 111.573 40.7789C111.235 40.7728 110.902 40.8565 110.607 41.0215C110.32 41.1763 110.081 41.4077 109.917 41.69C109.751 41.9813 109.665 42.3124 109.67 42.6484C109.665 42.9825 109.751 43.3117 109.917 43.6009C110.082 43.8844 110.32 44.1176 110.607 44.2753C110.901 44.4421 111.234 44.5278 111.573 44.5238C111.82 44.5318 112.067 44.4875 112.296 44.3937C112.525 44.2999 112.732 44.1588 112.904 43.9795L113.21 44.2812C113.008 44.4984 112.761 44.6681 112.486 44.7781C112.189 44.8934 111.873 44.9516 111.555 44.9497L111.526 44.9615ZM117.599 44.9615C117.176 44.9664 116.758 44.8626 116.385 44.6598C116.034 44.4675 115.741 44.1834 115.537 43.8375C115.334 43.477 115.23 43.0685 115.237 42.6543C115.228 42.2399 115.332 41.8309 115.537 41.4711C115.741 41.1236 116.034 40.8375 116.385 40.6429C116.759 40.4448 117.176 40.3432 117.599 40.3471C118.02 40.3387 118.436 40.4407 118.807 40.6429C119.158 40.8336 119.449 41.1182 119.649 41.4652C119.856 41.8249 119.965 42.233 119.965 42.6484C119.965 43.0638 119.856 43.4718 119.649 43.8316C119.449 44.1801 119.158 44.4667 118.807 44.6598C118.435 44.8593 118.02 44.9611 117.599 44.9556V44.9615ZM117.599 44.5356C117.936 44.5395 118.269 44.456 118.565 44.293C118.848 44.1362 119.081 43.9024 119.237 43.6186C119.399 43.3255 119.484 42.9957 119.484 42.6602C119.484 42.3248 119.399 41.9949 119.237 41.7018C119.078 41.4197 118.846 41.1865 118.565 41.0274C118.267 40.8718 117.935 40.7906 117.599 40.7906C117.263 40.7906 116.931 40.8718 116.633 41.0274C116.349 41.1871 116.114 41.4199 115.95 41.7018C115.787 41.9949 115.702 42.3248 115.702 42.6602C115.702 42.9957 115.787 43.3255 115.95 43.6186C116.111 43.9075 116.35 44.1452 116.639 44.3049C116.933 44.4663 117.264 44.5498 117.599 44.5474V44.5356ZM127.236 40.3944V44.9615H126.777V41.3173L125.01 44.3581H124.786L123.019 41.335V44.9615H122.565V40.4121H122.954L124.886 43.7783L126.824 40.424L127.236 40.3944ZM131.92 40.3944C132.404 40.3641 132.884 40.5112 133.269 40.8085C133.423 40.9545 133.545 41.1306 133.629 41.3259C133.713 41.5212 133.756 41.7317 133.756 41.9444C133.756 42.1571 133.713 42.3676 133.629 42.5629C133.545 42.7582 133.423 42.9343 133.269 43.0803C132.882 43.373 132.403 43.5178 131.92 43.4885H130.712V44.9615H130.235V40.4121L131.92 40.3944ZM131.92 43.0684C132.284 43.0938 132.645 42.9891 132.939 42.7726C133.158 42.5509 133.281 42.251 133.281 41.9385C133.281 41.6259 133.158 41.326 132.939 41.1043C132.644 40.8888 132.283 40.7841 131.92 40.8085H130.741V43.0684H131.92ZM138.93 43.7073H136.426L135.884 44.8905H135.389L137.445 40.3707H137.917L139.961 44.9615H139.46L138.918 43.7783L138.93 43.7073ZM138.759 43.3228L137.681 40.8913L136.597 43.3228H138.759ZM146.016 40.3648V44.9615H145.622L142.729 41.2936V44.9615H142.252V40.4121H142.647L145.545 44.0801V40.4121L146.016 40.3648ZM150.558 43.3228V44.9615H150.093V43.3701L148.29 40.4121H148.797L150.34 42.9501L151.884 40.4121H152.361L150.558 43.3701V43.3228Z" fill="#F7B101"/>
<path fill-rule="evenodd" clip-rule="evenodd" d="M144.178 22.9008H154.658C154.888 22.9008 155 23.0191 155 23.2617V25.5393C155.007 25.586 155.003 25.6337 154.988 25.6785C154.974 25.7233 154.949 25.7641 154.915 25.7974C154.882 25.8308 154.842 25.8559 154.797 25.8707C154.752 25.8854 154.705 25.8895 154.658 25.8825H151.012V36.8448C151.012 37.0874 150.9 37.2057 150.676 37.2057H148.161C147.937 37.2057 147.825 37.0874 147.825 36.8448V25.8825H144.178C143.937 25.8825 143.819 25.7642 143.819 25.5393V23.2617C143.812 23.2127 143.817 23.1628 143.832 23.1158C143.848 23.0689 143.874 23.0263 143.909 22.9913C143.944 22.9563 143.987 22.9299 144.033 22.9142C144.08 22.8985 144.13 22.8939 144.178 22.9008ZM142.105 23.2617V36.8685C142.112 36.9175 142.107 36.9674 142.092 37.0143C142.076 37.0613 142.05 37.1039 142.015 37.1389C141.98 37.1739 141.938 37.2003 141.891 37.216C141.844 37.2317 141.794 37.2362 141.746 37.2293H139.254C139.205 37.2362 139.155 37.2317 139.109 37.216C139.062 37.2003 139.019 37.1739 138.984 37.1389C138.95 37.1039 138.923 37.0613 138.908 37.0143C138.892 36.9674 138.888 36.9175 138.894 36.8685V23.2617C138.888 23.2127 138.892 23.1628 138.908 23.1158C138.923 23.0689 138.95 23.0263 138.984 22.9913C139.019 22.9563 139.062 22.9299 139.109 22.9142C139.155 22.8985 139.205 22.8939 139.254 22.9008H141.746C141.794 22.8939 141.844 22.8985 141.891 22.9142C141.938 22.9299 141.98 22.9563 142.015 22.9913C142.05 23.0263 142.076 23.0689 142.092 23.1158C142.107 23.1628 142.112 23.2127 142.105 23.2617ZM128.697 25.9002V34.1826H130.777C132.312 34.1826 133.082 33.3938 133.086 31.8162V28.3199C133.086 26.7068 132.316 25.9002 130.777 25.9002H128.697ZM130.777 37.2057H125.876C125.827 37.2126 125.777 37.208 125.73 37.1923C125.684 37.1766 125.641 37.1502 125.606 37.1152C125.572 37.0802 125.545 37.0376 125.53 36.9907C125.514 36.9437 125.509 36.8938 125.516 36.8448V23.238C125.509 23.189 125.514 23.1391 125.53 23.0922C125.545 23.0452 125.572 23.0026 125.606 22.9676C125.641 22.9326 125.684 22.9062 125.73 22.8905C125.777 22.8748 125.827 22.8702 125.876 22.8771H130.777C132.266 22.7952 133.733 23.2646 134.9 24.1964C135.914 25.0759 136.42 26.4958 136.42 28.4559V31.6387C136.42 35.3382 134.541 37.186 130.783 37.182L130.777 37.2057ZM122.659 31.9464C122.705 32.6877 122.598 33.4306 122.346 34.1288C122.094 34.827 121.701 35.4655 121.192 36.0047C120.032 36.9395 118.589 37.4489 117.101 37.4489C115.614 37.4489 114.17 36.9395 113.01 36.0047C112.505 35.4631 112.116 34.8239 111.866 34.1261C111.616 33.4283 111.51 32.6866 111.555 31.9464V23.2617C111.548 23.2127 111.553 23.1628 111.568 23.1158C111.584 23.0689 111.61 23.0263 111.645 22.9913C111.68 22.9563 111.722 22.9299 111.769 22.9142C111.816 22.8985 111.866 22.8939 111.914 22.9008H114.447C114.496 22.8939 114.546 22.8985 114.593 22.9142C114.639 22.9299 114.682 22.9563 114.717 22.9913C114.752 23.0263 114.778 23.0689 114.793 23.1158C114.809 23.1628 114.814 23.2127 114.807 23.2617V31.9464C114.76 32.6093 114.971 33.2646 115.396 33.7744C115.619 33.9944 115.886 34.1645 116.18 34.2736C116.473 34.3827 116.786 34.4283 117.098 34.4074C117.414 34.4265 117.73 34.3802 118.027 34.2713C118.324 34.1623 118.595 33.9932 118.824 33.7744C119.251 33.2658 119.463 32.6096 119.413 31.9464V23.2617C119.413 23.0191 119.525 22.9008 119.749 22.9008H122.3C122.53 22.9008 122.642 23.0191 122.642 23.2617V31.9464H122.659ZM103.809 26.4031C103.744 26.6161 103.52 27.3792 103.143 28.6926C102.766 30.0059 102.465 31.0057 102.253 31.6861H105.446L103.873 26.4031H103.809ZM100.274 37.2057H97.6055C97.3286 37.2057 97.2343 37.0755 97.3286 36.8093L101.947 23.2025C101.972 23.1209 102.023 23.0497 102.092 22.9996C102.161 22.9495 102.245 22.9231 102.33 22.9245H105.358C105.443 22.9203 105.527 22.9457 105.595 22.9963C105.664 23.047 105.713 23.1198 105.735 23.2025L110.359 36.8093C110.465 37.0755 110.359 37.2057 110.082 37.2057H107.431C107.338 37.2119 107.246 37.186 107.17 37.1321C107.094 37.0783 107.039 36.9998 107.013 36.9099L106.271 34.4666H101.429L100.675 36.9099C100.655 36.9996 100.603 37.0791 100.53 37.1335C100.456 37.1879 100.365 37.2136 100.274 37.2057Z" fill="#31447C"/>
<path fill-rule="evenodd" clip-rule="evenodd" d="M82.4247 22.9008H92.9046C93.1284 22.9008 93.2462 23.0191 93.2462 23.2617V25.5393C93.252 25.5858 93.2471 25.6329 93.2319 25.6772C93.2168 25.7214 93.1918 25.7616 93.1588 25.7947C93.1259 25.8278 93.0859 25.8529 93.0418 25.8681C92.9977 25.8833 92.9508 25.8882 92.9046 25.8825H89.2581V36.8448C89.2581 37.0874 89.1462 37.2057 88.9224 37.2057H86.407C86.1831 37.2057 86.0712 37.0874 86.0712 36.8448V25.8825H82.4247C82.1832 25.8825 82.0654 25.7642 82.0654 25.5393V23.2617C82.0585 23.2127 82.0631 23.1628 82.0787 23.1158C82.0944 23.0689 82.1206 23.0263 82.1555 22.9913C82.1903 22.9563 82.2328 22.9299 82.2795 22.9142C82.3262 22.8985 82.376 22.8939 82.4247 22.9008ZM81.3467 32.958C81.3725 33.5898 81.2456 34.2184 80.9768 34.7902C80.708 35.3619 80.3054 35.8599 79.8033 36.2414C78.5816 37.0928 77.1114 37.5093 75.6267 37.4246C74.6972 37.4383 73.773 37.2819 72.8993 36.9631C71.9895 36.6093 71.1407 36.1142 70.3839 35.496C70.3447 35.4719 70.3112 35.4396 70.2856 35.4013C70.26 35.363 70.243 35.3196 70.2358 35.2741C70.2285 35.2285 70.2311 35.182 70.2435 35.1375C70.2558 35.0931 70.2776 35.0519 70.3073 35.0168L71.6622 33.0763C71.6835 33.0336 71.7149 32.9968 71.7538 32.9692C71.7927 32.9416 71.8377 32.9242 71.885 32.9183C71.9322 32.9124 71.9801 32.9184 72.0245 32.9357C72.0689 32.9529 72.1083 32.9809 72.1393 33.0172C73.2071 33.8427 74.4991 34.3233 75.8447 34.3956C76.4004 34.4199 76.9533 34.304 77.4529 34.0584C77.6328 33.9665 77.7833 33.8257 77.8875 33.6521C77.9916 33.4785 78.0451 33.279 78.042 33.0763C78.0429 32.9204 78.0084 32.7663 77.941 32.6259C77.8736 32.4854 77.7752 32.3623 77.6532 32.2658C77.3982 32.0484 77.1043 31.8818 76.7872 31.7748C76.3546 31.6403 75.9138 31.5336 75.4677 31.4553C72.1334 30.7612 70.4663 29.2073 70.4663 26.7935C70.4395 26.1956 70.5637 25.6005 70.8274 25.0637C71.0911 24.5269 71.4856 24.0657 71.9744 23.7231C73.1279 22.9638 74.4904 22.5891 75.8682 22.6523C77.5933 22.6696 79.2737 23.2053 80.6928 24.1905C80.9049 24.3266 80.9344 24.4863 80.793 24.6697L79.5265 26.5806C79.5034 26.623 79.4714 26.6598 79.4327 26.6884C79.394 26.7171 79.3495 26.7369 79.3023 26.7465C79.2552 26.7561 79.2065 26.7552 79.1598 26.7439C79.113 26.7326 79.0693 26.7112 79.0316 26.6811C78.0471 26.0344 76.8974 25.6872 75.721 25.6813C74.4073 25.6813 73.7475 26.0836 73.7475 26.8645C73.739 27.0522 73.7866 27.2382 73.8842 27.3985C73.9819 27.5587 74.1251 27.686 74.2954 27.7638C74.9341 28.0319 75.5997 28.2302 76.2806 28.3554C76.9539 28.5184 77.6185 28.7158 78.2717 28.947C78.8187 29.1578 79.3403 29.4297 79.8269 29.7574C80.3142 30.0822 80.7067 30.5314 80.9638 31.059C81.2243 31.6406 81.353 32.273 81.3408 32.9107L81.3467 32.958ZM62.3546 31.3784V34.3128H68.2749C68.5165 34.3128 68.6343 34.4252 68.6343 34.65V36.8507C68.6411 36.8997 68.6366 36.9497 68.621 36.9966C68.6053 37.0435 68.5791 37.0862 68.5442 37.1212C68.5094 37.1561 68.4669 37.1825 68.4202 37.1982C68.3735 37.2139 68.3237 37.2185 68.2749 37.2116H59.4976C59.4488 37.2185 59.3991 37.2139 59.3523 37.1982C59.3056 37.1825 59.2631 37.1561 59.2283 37.1212C59.1935 37.0862 59.1672 37.0435 59.1516 36.9966C59.1359 36.9497 59.1314 36.8997 59.1382 36.8507V23.2439C59.1314 23.1949 59.1359 23.145 59.1516 23.0981C59.1672 23.0511 59.1935 23.0085 59.2283 22.9735C59.2631 22.9385 59.3056 22.9121 59.3523 22.8964C59.3991 22.8807 59.4488 22.8762 59.4976 22.8831H67.945C67.9938 22.8762 68.0436 22.8807 68.0903 22.8964C68.137 22.9121 68.1795 22.9385 68.2143 22.9735C68.2492 23.0085 68.2754 23.0511 68.2911 23.0981C68.3067 23.145 68.3113 23.1949 68.3044 23.2439V25.4388C68.3044 25.6636 68.1807 25.776 67.945 25.776H62.3429V28.521H67.2853C67.5268 28.521 67.6446 28.6334 67.6446 28.8582V31.0176C67.6446 31.2483 67.5268 31.3607 67.2853 31.3607L62.3546 31.3784ZM53.053 27.0834C53.0681 26.8901 53.0412 26.6958 52.974 26.5139C52.9069 26.3321 52.8012 26.1671 52.6642 26.0304C52.3549 25.7717 51.9583 25.6425 51.5567 25.6695H49.4066V28.4678H51.5567C52.5523 28.4678 53.053 28.0063 53.053 27.0716V27.0834ZM49.4066 34.366H51.8395C52.3174 34.392 52.7884 34.2428 53.1649 33.946C53.3349 33.7859 53.467 33.5896 53.5516 33.3716C53.6362 33.1535 53.6712 32.9192 53.6539 32.6859C53.6539 31.6032 53.0235 31.0649 51.7629 31.0649H49.4066V34.366ZM56.3165 26.9414C56.3546 27.4659 56.2464 27.9907 56.0039 28.4568C55.7615 28.9229 55.3944 29.3118 54.9439 29.58C56.2576 30.1302 56.9174 31.195 56.9174 32.7864C56.952 33.3891 56.855 33.992 56.6331 34.5531C56.4113 35.1141 56.07 35.6197 55.6332 36.0343C54.6258 36.8721 53.3395 37.2949 52.0339 37.2175H46.5377C46.4889 37.2244 46.4392 37.2198 46.3925 37.2041C46.3457 37.1884 46.3033 37.1621 46.2684 37.1271C46.2336 37.0921 46.2073 37.0494 46.1917 37.0025C46.1761 36.9556 46.1715 36.9056 46.1784 36.8566V23.2499C46.1715 23.2009 46.1761 23.1509 46.1917 23.104C46.2073 23.0571 46.2336 23.0144 46.2684 22.9794C46.3033 22.9444 46.3457 22.9181 46.3925 22.9024C46.4392 22.8867 46.4889 22.8821 46.5377 22.889H51.975C53.1355 22.8145 54.2797 23.194 55.1678 23.9479C55.5613 24.3354 55.8675 24.8031 56.0657 25.3195C56.2638 25.8359 56.3494 26.389 56.3165 26.9414Z" fill="#31447C"/>
<path d="M50.1076 43.8907H47.816L47.28 45.0739H46.414L48.6231 40.2287H49.3064L51.5155 45.0799H50.6613L50.1193 43.8967L50.1076 43.8907ZM47.7159 43.5535H50.3314L50.8675 44.7367H51.003L49.1002 40.5482H49.006L50.3079 43.5062H47.6275L48.9294 40.5482H48.8351L46.9324 44.7367H47.062L47.604 43.5535H47.7159ZM49.7895 43.1867L48.9647 41.335L48.14 43.1867H49.7895ZM55.4329 45.139C55.2144 45.1368 54.997 45.109 54.7849 45.0562C54.5796 45.002 54.3817 44.9225 54.1958 44.8196C53.8195 44.6131 53.5076 44.3059 53.2945 43.9322C53.1828 43.7486 53.0993 43.5492 53.0471 43.3406C52.9925 43.124 52.9648 42.9014 52.9646 42.678C52.9511 42.4518 52.969 42.2248 53.0176 42.0035C53.1172 41.5923 53.32 41.2134 53.6067 40.9032C53.9261 40.6106 54.3159 40.4066 54.7378 40.3116C54.9671 40.2548 55.2026 40.227 55.4388 40.2287C55.6132 40.2135 55.7886 40.2135 55.9631 40.2287C56.1243 40.258 56.2822 40.3036 56.4343 40.3648C56.5839 40.423 56.7262 40.4985 56.8585 40.5896C56.9912 40.6758 57.112 40.7793 57.2178 40.8972L57.3238 41.0156L56.7937 41.548L56.6759 41.4297C56.5178 41.2693 56.3284 41.1434 56.1195 41.0599C55.9107 40.9764 55.687 40.9371 55.4623 40.9446C55.3037 40.9441 55.1456 40.9619 54.9911 40.9978C54.8452 41.0375 54.7047 41.0951 54.5728 41.1694C54.4444 41.2406 54.3256 41.328 54.2194 41.4297C54.1133 41.5313 54.0238 41.6491 53.9543 41.7787C53.8057 42.0443 53.7276 42.3438 53.7276 42.6484C53.7276 42.953 53.8057 43.2525 53.9543 43.518C54.0238 43.6476 54.1133 43.7654 54.2194 43.8671C54.3256 43.9687 54.4444 44.0562 54.5728 44.1274C54.7047 44.2016 54.8452 44.2593 54.9911 44.2989C55.1456 44.3348 55.3037 44.3527 55.4623 44.3522C55.694 44.3549 55.924 44.3127 56.1398 44.228C56.3434 44.1472 56.5265 44.0219 56.6759 43.8612L56.7937 43.7369L57.3238 44.2753L57.2178 44.3936C57.1122 44.5134 56.9914 44.6188 56.8585 44.7072C56.7262 44.7983 56.5839 44.8737 56.4343 44.932C56.28 44.9925 56.1202 45.038 55.9572 45.068C55.788 45.0988 55.6166 45.1146 55.4447 45.1154L55.4329 45.139ZM54.8438 44.7308C55.0366 44.7782 55.2344 44.802 55.4329 44.8018C55.5848 44.8022 55.7365 44.7903 55.8865 44.7663C56.0272 44.7366 56.1651 44.6951 56.2988 44.6421C56.4267 44.5957 56.5476 44.532 56.6582 44.4528C56.7259 44.41 56.789 44.3605 56.8467 44.3049L56.776 44.2339C56.6213 44.3735 56.444 44.4855 56.2517 44.5652C55.9961 44.6641 55.7244 44.7142 55.4506 44.7131C55.266 44.713 55.0822 44.6912 54.9027 44.648C54.7262 44.6021 54.5561 44.5346 54.3961 44.4468C54.2406 44.3608 54.0978 44.2532 53.972 44.1274C53.8481 44.0026 53.7393 43.8636 53.648 43.7133C53.4742 43.394 53.3831 43.0359 53.3831 42.672C53.3831 42.3082 53.4742 41.9501 53.648 41.6308C53.7393 41.4805 53.8481 41.3415 53.972 41.2167C54.098 41.0927 54.2408 40.9872 54.3961 40.9032C54.5536 40.8102 54.7245 40.7424 54.9027 40.702C55.0814 40.6541 55.2656 40.6302 55.4506 40.631C55.9353 40.6199 56.4071 40.7884 56.776 41.1043L56.8467 41.0333L56.6641 40.8854C56.5487 40.8106 56.4264 40.7472 56.2988 40.6961C56.1671 40.6462 56.031 40.6086 55.8924 40.5837C55.743 40.5544 55.591 40.5406 55.4388 40.5423C55.2403 40.5421 55.0425 40.5659 54.8497 40.6133C54.6649 40.6594 54.4868 40.729 54.3195 40.8203C54.1583 40.9083 54.0097 41.0177 53.8777 41.1457C53.7467 41.2737 53.6338 41.419 53.5419 41.5776C53.4482 41.7408 53.3769 41.9159 53.3299 42.0982C53.2802 42.2914 53.2564 42.4903 53.2592 42.6898C53.257 42.8892 53.2807 43.0881 53.3299 43.2814C53.3759 43.4622 53.4473 43.6355 53.5419 43.7961C53.7263 44.1174 53.9954 44.3815 54.3195 44.5593C54.4854 44.6491 54.6614 44.7186 54.8438 44.7663V44.7308ZM61.5064 45.139C61.278 45.1392 61.0505 45.1113 60.8289 45.0562C60.6236 45.002 60.4257 44.9225 60.2398 44.8196C59.8635 44.6131 59.5516 44.3059 59.3385 43.9322C59.2268 43.7486 59.1434 43.5492 59.0911 43.3406C59.0365 43.124 59.0088 42.9014 59.0086 42.678C59.0059 42.4544 59.0336 42.2314 59.0911 42.0154C59.2033 41.5971 59.4226 41.2157 59.7273 40.9091C60.0467 40.6165 60.4365 40.4126 60.8584 40.3175C61.0683 40.2634 61.2838 40.2337 61.5005 40.2287C61.6723 40.2298 61.8438 40.2457 62.013 40.2761C62.1742 40.3053 62.3321 40.3509 62.4842 40.4121C62.6338 40.4703 62.7761 40.5458 62.9084 40.6369C63.0411 40.7232 63.1619 40.8266 63.2677 40.9446L63.3738 41.0629L62.8436 41.5953L62.7258 41.477C62.5677 41.3166 62.3783 41.1907 62.1694 41.1072C61.9606 41.0237 61.7369 40.9845 61.5122 40.9919C61.3536 40.9914 61.1955 41.0093 61.041 41.0451C60.8951 41.0848 60.7546 41.1425 60.6227 41.2167C60.4943 41.2879 60.3755 41.3754 60.2693 41.477C60.1632 41.5787 60.0738 41.6965 60.0042 41.8261C59.8556 42.0916 59.7775 42.3911 59.7775 42.6957C59.7775 43.0003 59.8556 43.2998 60.0042 43.5654C60.0738 43.695 60.1632 43.8128 60.2693 43.9144C60.3755 44.0161 60.4943 44.1035 60.6227 44.1747C60.7546 44.249 60.8951 44.3066 61.041 44.3463C61.1955 44.3822 61.3536 44.4 61.5122 44.3995C61.7439 44.4022 61.9739 44.36 62.1897 44.2753C62.3933 44.1945 62.5764 44.0692 62.7258 43.9085L62.8436 43.7843L63.3738 44.3226L63.2677 44.4409C63.1621 44.5607 63.0413 44.6662 62.9084 44.7545C62.7761 44.8456 62.6338 44.9211 62.4842 44.9793C62.3299 45.0398 62.1701 45.0854 62.0071 45.1154C61.8379 45.1461 61.6665 45.162 61.4946 45.1627L61.5064 45.139ZM60.9173 44.7308C61.1101 44.7782 61.3079 44.802 61.5064 44.8018C61.6583 44.8022 61.8099 44.7903 61.9599 44.7663C62.1006 44.7366 62.2386 44.6951 62.3723 44.6421C62.5001 44.5957 62.621 44.532 62.7316 44.4528C62.7993 44.41 62.8625 44.3605 62.9202 44.3049L62.8495 44.2339C62.6948 44.3735 62.5175 44.4855 62.3252 44.5652C62.0696 44.6641 61.7979 44.7142 61.524 44.7131C61.3395 44.713 61.1556 44.6912 60.9762 44.648C60.7997 44.6021 60.6295 44.5346 60.4696 44.4468C60.314 44.3608 60.1713 44.2532 60.0454 44.1274C59.9216 44.0026 59.8128 43.8636 59.7214 43.7133C59.5477 43.394 59.4566 43.0359 59.4566 42.672C59.4566 42.3082 59.5477 41.9501 59.7214 41.6308C59.8128 41.4805 59.9216 41.3415 60.0454 41.2167C60.1714 41.0927 60.3142 40.9872 60.4696 40.9032C60.6271 40.8102 60.798 40.7424 60.9762 40.702C61.1549 40.6541 61.3391 40.6302 61.524 40.631C62.0087 40.6199 62.4805 40.7884 62.8495 41.1043L62.9202 41.0333L62.7375 40.8854C62.6222 40.8106 62.4998 40.7472 62.3723 40.6961C62.2405 40.6462 62.1045 40.6086 61.9658 40.5837C61.8164 40.5544 61.6644 40.5406 61.5122 40.5423C61.3138 40.5421 61.116 40.5659 60.9232 40.6133C60.7384 40.6594 60.5602 40.729 60.393 40.8203C60.2318 40.9083 60.0831 41.0177 59.9512 41.1457C59.8202 41.2737 59.7072 41.419 59.6154 41.5776C59.5217 41.7408 59.4504 41.9159 59.4033 42.0982C59.3537 42.2914 59.3299 42.4903 59.3326 42.6898C59.3304 42.8892 59.3542 43.0881 59.4033 43.2814C59.4494 43.4622 59.5208 43.6355 59.6154 43.7961C59.7998 44.1174 60.0689 44.3815 60.393 44.5593C60.5589 44.6491 60.7349 44.7186 60.9173 44.7663V44.7308ZM67.5916 45.139C67.3633 45.1392 67.1358 45.1113 66.9141 45.0562C66.7087 45.0024 66.5108 44.9229 66.3251 44.8196C66.1382 44.7118 65.9642 44.5827 65.8067 44.435C65.5006 44.1318 65.281 43.7519 65.1705 43.3346C65.0605 42.8998 65.0605 42.4443 65.1705 42.0095C65.2237 41.8012 65.3071 41.6019 65.4179 41.4179C65.5221 41.2319 65.6531 41.0625 65.8067 40.915C65.9627 40.7655 66.1369 40.6363 66.3251 40.5305C66.5108 40.4271 66.7087 40.3476 66.9141 40.2938C67.1288 40.2465 67.3483 40.2247 67.568 40.2287C67.7942 40.2267 68.0197 40.2525 68.2396 40.3056C68.4454 40.361 68.6434 40.4425 68.8287 40.5482C69.2116 40.7454 69.5335 41.0441 69.7594 41.4119C69.8697 41.5962 69.953 41.7954 70.0068 42.0035C70.174 42.6525 70.0853 43.3412 69.7594 43.9262C69.6513 44.1129 69.5185 44.2841 69.3647 44.435C69.2117 44.5839 69.0393 44.7113 68.8522 44.8136C68.6667 44.9174 68.4688 44.9969 68.2632 45.0503C68.0435 45.1051 67.818 45.1329 67.5916 45.1331V45.139ZM67.0025 44.7308C67.3899 44.8227 67.7933 44.8227 68.1807 44.7308C68.3662 44.6873 68.5447 44.6175 68.7109 44.5238C68.8734 44.4378 69.0222 44.3282 69.1527 44.1984C69.2836 44.0704 69.3966 43.9251 69.4884 43.7665C69.6832 43.4353 69.7831 43.0566 69.7771 42.672C69.7789 42.4726 69.7551 42.2738 69.7064 42.0804C69.6562 41.9002 69.5829 41.7272 69.4884 41.5658C69.3966 41.4071 69.2836 41.2618 69.1527 41.1339C68.8808 40.8738 68.5456 40.6902 68.1807 40.6014C67.7933 40.5096 67.3899 40.5096 67.0025 40.6014C66.8171 40.6456 66.6387 40.7153 66.4723 40.8085C66.3085 40.9004 66.1563 41.0116 66.0187 41.1398C65.8878 41.2678 65.7748 41.4131 65.683 41.5717C65.5884 41.7323 65.517 41.9056 65.4709 42.0864C65.4243 42.2801 65.4006 42.4787 65.4002 42.678C65.398 42.8774 65.4218 43.0763 65.4709 43.2696C65.5191 43.4496 65.5904 43.6226 65.683 43.7843C65.7749 43.941 65.8879 44.0844 66.0187 44.2102C66.1548 44.3402 66.3073 44.4516 66.4723 44.5415C66.6385 44.6366 66.8169 44.7083 67.0025 44.7545V44.7308ZM67.5916 44.3759C67.9001 44.3816 68.2048 44.3061 68.4752 44.157C68.6019 44.0858 68.7187 43.9983 68.8228 43.8967C68.9253 43.7933 69.0126 43.6758 69.082 43.5476C69.1569 43.4178 69.2143 43.2785 69.2528 43.1335C69.3236 42.83 69.3236 42.5141 69.2528 42.2106C69.2143 42.0656 69.1569 41.9263 69.082 41.7965C69.0111 41.6693 68.9239 41.552 68.8228 41.4474C68.7157 41.3495 68.5993 41.2623 68.4752 41.1871C68.2023 41.0445 67.8992 40.9701 67.5916 40.9701C67.284 40.9701 66.9809 41.0445 66.708 41.1871C66.5816 41.2611 66.4648 41.3505 66.3604 41.4534C66.2543 41.5542 66.1631 41.6698 66.0894 41.7965C66.0173 41.927 65.9619 42.0661 65.9245 42.2106C65.8832 42.3608 65.8633 42.5162 65.8656 42.672C65.8621 42.9786 65.9393 43.2807 66.0894 43.5476C66.163 43.6762 66.2542 43.7937 66.3604 43.8967C66.4633 43.9996 66.5804 44.0873 66.708 44.157C66.9802 44.3072 67.287 44.3827 67.5975 44.3759H67.5916ZM68.6343 44.4468C68.316 44.6259 67.9564 44.7177 67.5916 44.7131C67.2249 44.7177 66.8635 44.6259 66.543 44.4468C66.2281 44.2731 65.9669 44.0155 65.7882 43.7024C65.6094 43.3893 65.52 43.0328 65.5298 42.672C65.5242 42.3075 65.6158 41.948 65.7949 41.6308C65.8862 41.4786 65.9949 41.3376 66.1189 41.2108C66.2465 41.0887 66.389 40.9833 66.543 40.8972C66.8635 40.7182 67.2249 40.6264 67.5916 40.631C67.9564 40.6264 68.316 40.7182 68.6343 40.8972C68.7875 40.9818 68.9282 41.0874 69.0525 41.2108C69.1765 41.3376 69.2852 41.4786 69.3765 41.6308C69.4654 41.7859 69.5309 41.9534 69.5709 42.1278C69.6651 42.4845 69.6651 42.8596 69.5709 43.2163C69.5309 43.3907 69.4654 43.5582 69.3765 43.7133C69.2852 43.8655 69.1765 44.0065 69.0525 44.1333C68.9271 44.2554 68.7865 44.3608 68.6343 44.4468ZM74.3661 45.139C74.0938 45.1547 73.8212 45.1134 73.5656 45.0177C73.3101 44.9219 73.0771 44.7739 72.8816 44.5829C72.6992 44.388 72.5606 44.156 72.4751 43.9026C72.3867 43.6112 72.343 43.308 72.3455 43.0033V40.2287H73.1584V42.9619C73.1533 43.1775 73.1791 43.3927 73.235 43.6009C73.28 43.7579 73.3584 43.9032 73.4648 44.0268C73.5677 44.1346 73.6922 44.2192 73.83 44.2753C74.1788 44.3868 74.5534 44.3868 74.9021 44.2753C75.0469 44.2184 75.1759 44.1274 75.2784 44.0101C75.3809 43.8927 75.4539 43.7524 75.4912 43.6009C75.5493 43.393 75.5771 43.1778 75.5737 42.9619V40.2287H76.369V42.9856C76.3744 43.2904 76.3306 43.5941 76.2394 43.8848C76.1585 44.139 76.0215 44.3715 75.8388 44.5652C75.6575 44.753 75.4358 44.8966 75.1908 44.9852C74.9195 45.0873 74.6322 45.1394 74.3425 45.139H74.3661ZM73.0995 44.3699C73.2647 44.5269 73.4603 44.6478 73.6742 44.7252C73.8881 44.8026 74.1157 44.8347 74.3425 44.8196C74.5868 44.825 74.8301 44.787 75.0612 44.7072C75.2567 44.6347 75.4338 44.5195 75.5796 44.3699C75.7286 44.211 75.8412 44.0211 75.9095 43.8138C75.9867 43.5568 76.0245 43.2895 76.0214 43.0211V40.5955H75.8918V42.9974C75.8937 43.2471 75.862 43.4958 75.7975 43.7369C75.7365 43.9405 75.632 44.1283 75.4912 44.2871C75.3554 44.4361 75.1856 44.5498 74.9964 44.6184C74.7874 44.697 74.5656 44.7351 74.3425 44.7308C74.1213 44.7355 73.9013 44.6974 73.6945 44.6184C73.5053 44.5498 73.3355 44.4361 73.1997 44.2871C73.0589 44.1283 72.9544 43.9405 72.8934 43.7369C72.826 43.4964 72.7943 43.2472 72.7991 42.9974V40.5778H72.6577V43.0033C72.6518 43.272 72.6896 43.5397 72.7697 43.7961C72.8379 44.0034 72.9505 44.1932 73.0995 44.3522V44.3699ZM83.061 40.4121V45.0976H82.4719L79.8269 41.7432V45.0976H79.0198V40.2287H79.6561L82.3069 43.5831V40.2287H83.061V40.3944V40.4121ZM82.7252 44.7663V40.5778H82.5897V44.5593L79.444 40.5778H79.2967V44.7663H79.4381V40.7848L82.5779 44.7663H82.7252ZM86.6014 40.9919H85.0226V40.2287H88.993V40.9742H87.4084V45.0799H86.6014V40.9919ZM85.3525 40.6606H86.9371V44.7663H87.0785V40.6606H88.6573V40.5778H85.3525V40.6606ZM91.1196 40.2465H91.7617V45.0976H90.9547V40.2287L91.1196 40.2465ZM91.4319 40.5837H91.3081V44.7663H91.4554L91.4319 40.5837ZM98.5009 40.4121V45.0976H97.8647L95.2197 41.7432V45.0976H94.4067V40.2287H95.0488L97.6997 43.5831V40.2287H98.5009V40.3944V40.4121ZM98.1651 44.7663V40.5837H98.0296V44.5593L94.8839 40.5837H94.7425V44.7663H94.8839V40.7848L98.0237 44.7663H98.1651ZM104.504 42.5064H105.128V44.4705L105.069 44.5238C104.955 44.6257 104.831 44.7149 104.698 44.79C104.563 44.8696 104.418 44.9332 104.268 44.9793C104.117 45.0339 103.961 45.0736 103.803 45.0976C103.411 45.1637 103.011 45.1516 102.624 45.0621C102.409 45.0087 102.201 44.9272 102.006 44.8196C101.629 44.6141 101.316 44.3093 101.099 43.9381C100.989 43.7528 100.904 43.5539 100.845 43.3465C100.79 43.1299 100.763 42.9073 100.763 42.6839C100.763 42.4604 100.791 42.2379 100.845 42.0213C100.904 41.814 100.99 41.6152 101.099 41.4297C101.314 41.054 101.631 40.7465 102.012 40.5423C102.197 40.4376 102.395 40.358 102.601 40.3056C102.825 40.2508 103.054 40.223 103.284 40.2228C103.46 40.2231 103.635 40.2389 103.809 40.2702C103.973 40.2974 104.135 40.341 104.292 40.4003C104.442 40.4598 104.587 40.5351 104.722 40.6251C104.855 40.7111 104.975 40.8145 105.081 40.9327L105.187 41.0511L104.663 41.5835L104.545 41.4652C104.389 41.3084 104.202 41.1856 103.997 41.1043C103.776 41.0239 103.543 40.9838 103.308 40.986C103.075 40.9792 102.844 41.0185 102.626 41.1017C102.409 41.185 102.21 41.3105 102.041 41.4711C101.935 41.572 101.844 41.6875 101.77 41.8142C101.698 41.9453 101.641 42.0842 101.599 42.2283C101.529 42.5319 101.529 42.8477 101.599 43.1512C101.642 43.2931 101.699 43.4299 101.77 43.5594C101.847 43.6856 101.938 43.8027 102.041 43.9085C102.147 44.0101 102.266 44.0976 102.395 44.1688C102.529 44.2431 102.671 44.3007 102.819 44.3404C103.173 44.4265 103.543 44.4265 103.897 44.3404C104.042 44.2953 104.18 44.2317 104.309 44.151V42.5064H104.504ZM104.792 42.8377H104.674V44.2812L104.604 44.3344C104.424 44.4606 104.225 44.5565 104.015 44.6184C103.793 44.6835 103.563 44.7154 103.331 44.7131C103.133 44.7156 102.935 44.6938 102.742 44.648C102.565 44.6032 102.395 44.5355 102.236 44.4468C102.08 44.3608 101.937 44.2532 101.812 44.1274C101.683 44.0056 101.572 43.8662 101.482 43.7133C101.392 43.56 101.325 43.3946 101.281 43.2222C101.234 43.0427 101.21 42.8578 101.211 42.672C101.21 42.4883 101.234 42.3053 101.281 42.1278C101.326 41.9538 101.393 41.7867 101.482 41.6308C101.573 41.4771 101.684 41.3359 101.812 41.2108C101.94 41.0872 102.085 40.9818 102.242 40.8972C102.529 40.7497 102.844 40.663 103.166 40.6427C103.488 40.6223 103.811 40.6687 104.115 40.7789C104.312 40.8549 104.495 40.9628 104.657 41.0984L104.722 41.0333C104.664 40.9777 104.601 40.9282 104.533 40.8854C104.421 40.8084 104.301 40.7449 104.174 40.6961C104.036 40.6462 103.894 40.6086 103.75 40.5837C103.596 40.5574 103.44 40.5435 103.284 40.5423C103.086 40.5426 102.888 40.5664 102.695 40.6133C102.508 40.6584 102.328 40.728 102.159 40.8203C101.833 40.998 101.562 41.2619 101.376 41.5835C101.281 41.7441 101.21 41.9174 101.164 42.0982C101.114 42.2914 101.09 42.4903 101.093 42.6898C101.091 42.8892 101.114 43.0881 101.164 43.2814C101.21 43.4622 101.281 43.6355 101.376 43.7961C101.562 44.1177 101.833 44.3816 102.159 44.5593C102.509 44.7465 102.9 44.8421 103.296 44.8373C103.587 44.8383 103.875 44.7903 104.15 44.6953C104.279 44.6521 104.403 44.5966 104.521 44.5297C104.612 44.4774 104.699 44.418 104.781 44.3522V42.8732L104.792 42.8377ZM111.478 45.139C111.252 45.1392 111.026 45.1114 110.807 45.0562C110.601 45.0038 110.403 44.9242 110.218 44.8196C109.84 44.6124 109.527 44.3056 109.311 43.9322C109.204 43.7462 109.12 43.5475 109.063 43.3406C108.953 42.9057 108.953 42.4502 109.063 42.0154C109.123 41.8092 109.206 41.6107 109.311 41.4238C109.419 41.239 109.552 41.0698 109.705 40.9209C110.02 40.6152 110.41 40.4006 110.836 40.2997C111.056 40.245 111.281 40.2171 111.508 40.2169C111.68 40.2175 111.851 40.2333 112.02 40.2642C112.183 40.2942 112.343 40.3398 112.498 40.4003C112.647 40.4585 112.789 40.534 112.922 40.6251C113.053 40.7129 113.174 40.8162 113.281 40.9327L113.387 41.0511L112.857 41.5894L112.733 41.4652C112.579 41.3094 112.395 41.1862 112.193 41.1029C111.991 41.0196 111.774 40.9778 111.555 40.9801C111.396 40.9784 111.237 40.9983 111.084 41.0392C110.937 41.0732 110.796 41.129 110.665 41.2049C110.534 41.2731 110.414 41.3631 110.312 41.4711C110.206 41.572 110.115 41.6875 110.041 41.8142C109.89 42.0787 109.813 42.3791 109.817 42.6839C109.814 42.9905 109.891 43.2925 110.041 43.5594C110.116 43.6851 110.207 43.8005 110.312 43.9026C110.417 44.007 110.536 44.0966 110.665 44.1688C110.798 44.2396 110.939 44.2952 111.084 44.3344C111.238 44.3707 111.396 44.3885 111.555 44.3877C111.784 44.39 112.012 44.3499 112.227 44.2694C112.43 44.1857 112.613 44.0585 112.763 43.8967L112.88 43.7783L113.416 44.3108L113.31 44.4291C113.203 44.5475 113.083 44.6528 112.951 44.7426C112.815 44.8321 112.668 44.9056 112.515 44.9615C112.361 45.0228 112.201 45.0684 112.038 45.0976C111.869 45.1286 111.697 45.1444 111.526 45.1449L111.478 45.139ZM110.889 44.7367C111.083 44.7797 111.28 44.8015 111.478 44.8018C111.63 44.8024 111.782 44.7906 111.932 44.7663C112.074 44.7367 112.214 44.6972 112.35 44.648C112.477 44.596 112.597 44.5305 112.71 44.4528C112.776 44.4087 112.839 44.3592 112.898 44.3049L112.827 44.2398C112.67 44.377 112.491 44.4869 112.297 44.5652C112.043 44.6673 111.77 44.7176 111.496 44.7131C111.312 44.7126 111.128 44.6907 110.948 44.648C110.774 44.6021 110.605 44.5346 110.448 44.4468C110.292 44.3608 110.149 44.2532 110.023 44.1274C109.896 44.0054 109.787 43.866 109.699 43.7133C109.517 43.3974 109.423 43.0374 109.428 42.672C109.423 42.3086 109.517 41.9506 109.699 41.6367C109.787 41.4822 109.896 41.3408 110.023 41.2167C110.151 41.0946 110.293 40.9892 110.448 40.9032C110.604 40.813 110.773 40.7453 110.948 40.702C111.127 40.6544 111.311 40.6305 111.496 40.631C111.983 40.619 112.457 40.7875 112.827 41.1043L112.892 41.0333C112.835 40.9794 112.774 40.93 112.71 40.8854C112.597 40.8103 112.477 40.7488 112.35 40.702C112.218 40.6475 112.079 40.6078 111.938 40.5837C111.788 40.5544 111.637 40.5406 111.484 40.5423C111.286 40.542 111.088 40.5658 110.895 40.6133C110.71 40.6574 110.531 40.7271 110.365 40.8203C110.201 40.9068 110.05 41.0163 109.917 41.1457C109.786 41.2758 109.673 41.423 109.582 41.5835C109.487 41.7441 109.416 41.9174 109.369 42.0982C109.27 42.4862 109.27 42.8934 109.369 43.2814C109.416 43.4622 109.487 43.6355 109.582 43.7961C109.766 44.1174 110.035 44.3815 110.359 44.5593C110.527 44.649 110.705 44.7185 110.889 44.7663V44.7367ZM117.558 45.139C117.329 45.1388 117.102 45.111 116.88 45.0562C116.675 45.002 116.477 44.9225 116.291 44.8196C116.102 44.7153 115.928 44.5859 115.773 44.435C115.619 44.2861 115.486 44.117 115.378 43.9322C115.273 43.7452 115.19 43.5467 115.131 43.3406C115.021 42.9057 115.021 42.4502 115.131 42.0154C115.19 41.8092 115.273 41.6107 115.378 41.4238C115.486 41.239 115.619 41.0698 115.773 40.9209C115.928 40.77 116.102 40.6407 116.291 40.5364C116.477 40.4335 116.675 40.354 116.88 40.2997C117.325 40.1892 117.79 40.1892 118.235 40.2997C118.441 40.3526 118.639 40.4322 118.824 40.5364C119.013 40.6386 119.188 40.7659 119.343 40.915C119.496 41.0639 119.629 41.2331 119.737 41.4179C119.845 41.6033 119.929 41.8022 119.985 42.0095C120.039 42.2261 120.067 42.4486 120.067 42.672C120.072 43.1142 119.958 43.5495 119.737 43.9322C119.522 44.3083 119.206 44.6158 118.824 44.8196C118.639 44.9237 118.441 45.0033 118.235 45.0562C118.014 45.111 117.786 45.1388 117.558 45.139ZM116.969 44.7308C117.161 44.7783 117.359 44.8021 117.558 44.8018C117.756 44.8018 117.953 44.78 118.147 44.7367C118.331 44.69 118.51 44.6204 118.677 44.5297C118.84 44.4397 118.991 44.3283 119.125 44.1984C119.256 44.0704 119.369 43.9251 119.461 43.7665C119.652 43.4341 119.749 43.0558 119.743 42.672C119.746 42.4726 119.722 42.2736 119.673 42.0804C119.626 41.8981 119.554 41.723 119.461 41.5598C119.367 41.4008 119.252 41.2554 119.119 41.128C118.988 40.9987 118.839 40.8891 118.677 40.8026C118.511 40.7094 118.332 40.6397 118.147 40.5955C117.954 40.5473 117.756 40.5235 117.558 40.5245C117.359 40.5239 117.161 40.5477 116.969 40.5955C116.783 40.6433 116.603 40.7128 116.433 40.8026C116.271 40.8946 116.12 41.0058 115.985 41.1339C115.855 41.2631 115.743 41.4082 115.649 41.5658C115.555 41.7264 115.483 41.8997 115.437 42.0804C115.387 42.2736 115.364 42.4726 115.366 42.672C115.364 42.8715 115.388 43.0704 115.437 43.2636C115.483 43.4444 115.555 43.6177 115.649 43.7783C115.743 43.9359 115.855 44.081 115.985 44.2102C116.119 44.3382 116.27 44.4477 116.433 44.5356C116.601 44.6298 116.781 44.7014 116.969 44.7486V44.7308ZM117.558 44.3759C117.866 44.3816 118.171 44.3061 118.441 44.157C118.569 44.0873 118.686 43.9996 118.789 43.8967C118.891 43.7918 118.98 43.6745 119.054 43.5476C119.127 43.4175 119.183 43.2783 119.219 43.1335C119.257 42.9827 119.277 42.8277 119.278 42.672C119.276 42.5164 119.257 42.3615 119.219 42.2106C119.183 42.0658 119.127 41.9266 119.054 41.7965C118.981 41.6713 118.891 41.556 118.789 41.4534C118.685 41.3505 118.568 41.2611 118.441 41.1871C118.17 41.0402 117.866 40.9649 117.558 40.9682C117.25 40.9662 116.946 41.0414 116.674 41.1871C116.547 41.2624 116.428 41.3516 116.321 41.4534C116.218 41.556 116.129 41.6713 116.056 41.7965C115.981 41.9267 115.924 42.0659 115.885 42.2106C115.849 42.3618 115.831 42.5167 115.832 42.672C115.827 42.8987 115.868 43.1238 115.952 43.3342C116.036 43.5446 116.162 43.7358 116.321 43.8967C116.427 43.9983 116.546 44.0858 116.674 44.157C116.945 44.3061 117.249 44.3816 117.558 44.3759ZM118.606 44.4468C118.284 44.6213 117.924 44.7127 117.558 44.7127C117.192 44.7127 116.831 44.6213 116.509 44.4468C116.357 44.3613 116.216 44.2558 116.091 44.1333C115.964 44.0092 115.855 43.8678 115.767 43.7133C115.584 43.3976 115.49 43.0375 115.496 42.672C115.495 42.4883 115.519 42.3052 115.567 42.1278C115.609 41.9531 115.676 41.7857 115.767 41.6308C115.854 41.476 115.963 41.3345 116.091 41.2108C116.218 41.0901 116.358 40.9848 116.509 40.8972C116.831 40.7228 117.192 40.6314 117.558 40.6314C117.924 40.6314 118.284 40.7228 118.606 40.8972C118.759 40.9849 118.9 41.0923 119.025 41.2167C119.15 41.3388 119.257 41.4783 119.343 41.6308C119.431 41.7867 119.499 41.9538 119.543 42.1278C119.589 42.3055 119.611 42.4885 119.608 42.672C119.608 42.8554 119.586 43.0381 119.543 43.2163C119.501 43.391 119.433 43.5584 119.343 43.7133C119.257 43.8676 119.15 44.009 119.025 44.1333C118.901 44.2576 118.76 44.3633 118.606 44.4468ZM127.36 40.4121V45.0976H126.571V41.9385L125.069 44.5238H124.65L123.148 41.9503V45.0976H122.353V40.2287H123.007L124.886 43.4293L126.747 40.2287H127.401V40.3944L127.36 40.4121ZM127.03 44.7663V40.5837H126.901L124.886 44.0978L122.836 40.5837H122.706V44.7663H122.83V40.7198L124.886 44.1925H124.921L126.954 40.6961V44.7663H127.03ZM131.92 40.2287C132.197 40.2238 132.473 40.2617 132.738 40.3411C132.973 40.4087 133.191 40.5235 133.381 40.6784C133.557 40.8306 133.698 41.0206 133.793 41.2345C133.973 41.6904 133.973 42.1984 133.793 42.6543C133.7 42.8673 133.559 43.0556 133.381 43.2045C133.193 43.3616 132.974 43.4765 132.738 43.5417C132.475 43.6208 132.201 43.6587 131.926 43.6541H130.883V45.0799H130.07V40.2287H131.92ZM132.644 40.6606C132.409 40.593 132.165 40.5611 131.92 40.566H130.406V44.7486H130.547V43.3406H131.92C132.165 43.3433 132.409 43.3094 132.644 43.24C132.834 43.1856 133.01 43.093 133.163 42.9678C133.304 42.8554 133.416 42.7089 133.487 42.5419C133.634 42.1614 133.634 41.7392 133.487 41.3587C133.414 41.1929 133.303 41.0469 133.163 40.9327C133.012 40.8036 132.835 40.7087 132.644 40.6547V40.6606ZM131.908 42.9028C132.235 42.9257 132.56 42.8336 132.827 42.6425C132.922 42.565 132.997 42.4655 133.045 42.3526C133.095 42.2224 133.119 42.0838 133.115 41.9444C133.119 41.8011 133.095 41.6586 133.045 41.5243C132.997 41.4114 132.922 41.3119 132.827 41.2345C132.718 41.1459 132.591 41.0815 132.456 41.0451C132.278 40.9948 132.093 40.9709 131.908 40.9742H130.883V42.8969H131.908V42.9028ZM133.039 42.9028C132.713 43.1449 132.312 43.2623 131.908 43.2341H130.547V40.6606H131.908C132.122 40.6563 132.337 40.6822 132.544 40.7375C132.724 40.7883 132.893 40.8748 133.039 40.9919C133.175 41.1048 133.282 41.2488 133.351 41.4119C133.419 41.5874 133.453 41.774 133.451 41.9621C133.453 42.1484 133.419 42.3332 133.351 42.5064C133.28 42.6668 133.173 42.8086 133.039 42.9205V42.9028ZM138.812 43.873H136.52L135.984 45.0562H135.118L137.333 40.2051H138.011L140.22 45.0562H139.354L138.812 43.873ZM136.414 43.5417H139.024L139.566 44.7249H139.696L137.793 40.5423H137.699L139.024 43.5062H136.35L137.651 40.5837H137.557L135.654 44.7663H135.784L136.326 43.5831L136.414 43.5417ZM138.494 43.1867L137.669 41.335L136.844 43.1867H138.494ZM146.152 40.4299V45.1154H145.516L142.871 41.761V45.1154H142.058V40.2287H142.7L145.351 43.5831V40.2287H146.158V40.3944L146.152 40.4299ZM145.822 44.7841V40.5837H145.687V44.5593L142.559 40.5837H142.411V44.7663H142.559V40.7848L145.698 44.7663L145.822 44.7841ZM150.7 43.4352V45.1154H149.899V43.4175L147.984 40.2287H148.879L150.329 42.5951L151.778 40.2287H152.65L150.7 43.4352ZM150.364 44.7841V43.3228L152.037 40.5837H151.984L150.346 43.2696L148.714 40.5837H148.597L150.264 43.3228V44.7663L150.364 44.7841Z" fill="#F7B101"/>
</g>
<defs>
<clipPath id="clip0_298_799">
<rect width="155" height="60" fill="white"/>
</clipPath>
</defs>
</svg>
